<svg width="24" height="24" viewBox="0 0 24 24" fill="none" xmlns="http://www.w3.org/2000/svg">
<path d="M19.5032 12.75C19.5032 11.2666 19.0633 9.81659 18.2392 8.58322C17.4151 7.34985 16.2438 6.38856 14.8733 5.8209C13.5029 5.25325 11.9949 5.10472 10.54 5.39411C9.08515 5.6835 7.74878 6.39781 6.69988 7.4467C5.65099 8.49559 4.93668 9.83197 4.64729 11.2868C4.3579 12.7417 4.50643 14.2497 5.07409 15.6201C5.64174 16.9906 6.60304 18.1619 7.83641 18.986C9.06977 19.8101 10.5198 20.25 12.0032 20.25C13.9923 20.25 15.9 19.4598 17.3065 18.0533C18.713 16.6468 19.5032 14.7391 19.5032 12.75ZM6.66178 4.27547C6.2682 3.93868 5.7679 3.75248 5.2499 3.75L5.11912 3.75375C3.92146 3.82594 2.9999 4.875 3.00318 6.14062C3.00318 6.75984 3.22162 7.04859 3.51318 7.41703C3.53129 7.44071 3.55417 7.46032 3.58033 7.47461C3.60649 7.4889 3.63535 7.49755 3.66506 7.5H3.70631C3.72953 7.49958 3.75235 7.49383 3.773 7.48318C3.79365 7.47253 3.81157 7.45728 3.82537 7.43859L6.67396 4.64062C6.69829 4.61603 6.71729 4.58669 6.72979 4.55443C6.74229 4.52217 6.74802 4.48769 6.74662 4.45312C6.74544 4.41927 6.7373 4.38603 6.7227 4.35546C6.7081 4.3249 6.68736 4.29766 6.66178 4.27547ZM17.338 4.27547C17.7316 3.93868 18.2319 3.75248 18.7499 3.75L18.8807 3.75375C20.0783 3.82594 20.9999 4.875 20.9966 6.14062C20.9966 6.75984 20.7782 7.04859 20.4866 7.41703C20.4685 7.44062 20.4456 7.46015 20.4194 7.47435C20.3933 7.48856 20.3644 7.49714 20.3347 7.49953H20.2935C20.2703 7.49912 20.2474 7.49336 20.2268 7.48271C20.2062 7.47206 20.1882 7.45681 20.1744 7.43812L17.3258 4.64062C17.3015 4.61603 17.2825 4.58669 17.27 4.55443C17.2575 4.52217 17.2518 4.48769 17.2532 4.45312C17.2544 4.41927 17.2625 4.38603 17.2771 4.35546C17.2917 4.3249 17.3124 4.29766 17.338 4.27547Z" stroke="#4477B8" stroke-width="1.5" stroke-miterlimit="10"/>
<path d="M12.0032 7.5V12.75H8.25317M19.5032 20.25L17.6282 18.375M4.50317 20.25L6.37817 18.375" stroke="#4477B8" stroke-linecap="round" stroke-linejoin="round"/>
</svg>
