<svg width="24" height="24" viewBox="0 0 24 24" fill="none" xmlns="http://www.w3.org/2000/svg">
<path d="M14.5 9.99971C14.5 9.20871 15.553 8.99871 15.832 9.73971C16.508 11.5297 17 13.1337 17 13.9997C17 15.3258 16.4732 16.5976 15.5355 17.5352C14.5979 18.4729 13.3261 18.9997 12 18.9997C10.6739 18.9997 9.40215 18.4729 8.46447 17.5352C7.52678 16.5976 7 15.3258 7 13.9997C7 13.0697 7.568 11.2887 8.322 9.33671C9.297 6.80871 9.785 5.54471 10.388 5.47671C10.58 5.45471 10.791 5.49371 10.963 5.58371C11.5 5.86371 11.5 7.24271 11.5 9.99971C11.5 10.3975 11.658 10.7791 11.9393 11.0604C12.2206 11.3417 12.6022 11.4997 13 11.4997C13.3978 11.4997 13.7794 11.3417 14.0607 11.0604C14.342 10.7791 14.5 10.3975 14.5 9.99971Z" stroke="#4477B8" stroke-width="2"/>
<path d="M10.9999 18.9994L10.7369 18.3424C10.5125 17.783 10.4408 17.1741 10.5292 16.5778C10.6176 15.9816 10.8629 15.4196 11.2399 14.9494C11.3311 14.8354 11.4467 14.7434 11.5783 14.6801C11.7098 14.6168 11.8539 14.584 11.9999 14.584C12.1459 14.584 12.29 14.6168 12.4216 14.6801C12.5531 14.7434 12.6688 14.8354 12.7599 14.9494C13.5259 15.9074 13.7179 17.2034 13.2629 18.3424L12.9999 18.9994" stroke="#4477B8" stroke-width="2"/>
</svg>
