<svg width="75" height="17" viewBox="0 0 75 17" fill="none" xmlns="http://www.w3.org/2000/svg">
<path d="M6.36 1.39719C7.57333 1.39719 8.6 1.60385 9.44 2.01719C10.28 2.41719 10.92 2.99052 11.36 3.73719C11.8 4.47052 12.02 5.34385 12.02 6.35719C12.02 6.95719 11.9267 7.56385 11.74 8.17719C11.5667 8.77719 11.28 9.32385 10.88 9.81719C10.4933 10.3105 9.96667 10.7105 9.3 11.0172C8.64667 11.3105 7.84 11.4572 6.88 11.4572H4.8V16.1172H1.9V1.39719H6.36ZM6.86 8.63719C7.3 8.63719 7.66667 8.56385 7.96 8.41719C8.25333 8.25719 8.48 8.06385 8.64 7.83719C8.81333 7.59719 8.93333 7.35052 9 7.09719C9.08 6.84385 9.12 6.62385 9.12 6.43719C9.12 6.29052 9.09333 6.09719 9.04 5.85719C9 5.60385 8.90667 5.35052 8.76 5.09719C8.61333 4.84385 8.38667 4.63052 8.08 4.45719C7.78667 4.28385 7.38667 4.19719 6.88 4.19719H4.8V8.63719H6.86ZM17.8348 16.3572C17.0215 16.3572 16.2815 16.1972 15.6148 15.8772C14.9615 15.5439 14.4415 15.0372 14.0548 14.3572C13.6682 13.6772 13.4748 12.8105 13.4748 11.7572C13.4748 10.7705 13.6748 9.91719 14.0748 9.19719C14.4748 8.47719 15.0015 7.92385 15.6548 7.53719C16.3082 7.13719 17.0015 6.93719 17.7348 6.93719C18.6015 6.93719 19.2548 7.08385 19.6948 7.37719C20.1482 7.65719 20.5215 7.97052 20.8148 8.31719L20.6948 8.65719L20.9548 7.37719H23.5548V16.1172H20.7548V14.2172L20.9748 14.8172C20.9482 14.8172 20.8682 14.8972 20.7348 15.0572C20.6015 15.2039 20.4015 15.3839 20.1348 15.5972C19.8815 15.7972 19.5615 15.9705 19.1748 16.1172C18.8015 16.2772 18.3548 16.3572 17.8348 16.3572ZM18.6348 14.0772C18.9682 14.0772 19.2682 14.0305 19.5348 13.9372C19.8015 13.8305 20.0348 13.6839 20.2348 13.4972C20.4348 13.2972 20.6082 13.0505 20.7548 12.7572V10.6172C20.6482 10.3239 20.4882 10.0772 20.2748 9.87719C20.0615 9.66385 19.8082 9.50385 19.5148 9.39719C19.2215 9.27719 18.8948 9.21719 18.5348 9.21719C18.1348 9.21719 17.7615 9.32385 17.4148 9.53719C17.0815 9.73719 16.8148 10.0172 16.6148 10.3772C16.4148 10.7372 16.3148 11.1505 16.3148 11.6172C16.3148 12.0839 16.4215 12.5039 16.6348 12.8772C16.8482 13.2505 17.1282 13.5439 17.4748 13.7572C17.8348 13.9705 18.2215 14.0772 18.6348 14.0772ZM30.12 16.3572C29.3067 16.3572 28.5667 16.1972 27.9 15.8772C27.2467 15.5439 26.7267 15.0372 26.34 14.3572C25.9533 13.6772 25.76 12.8105 25.76 11.7572C25.76 10.7705 25.96 9.91719 26.36 9.19719C26.76 8.47719 27.2867 7.92385 27.94 7.53719C28.5933 7.13719 29.2867 6.93719 30.02 6.93719C30.8867 6.93719 31.54 7.08385 31.98 7.37719C32.4333 7.65719 32.8067 7.97052 33.1 8.31719L32.98 8.65719L33.24 7.37719H35.84V16.1172H33.04V14.2172L33.26 14.8172C33.2333 14.8172 33.1533 14.8972 33.02 15.0572C32.8867 15.2039 32.6867 15.3839 32.42 15.5972C32.1667 15.7972 31.8467 15.9705 31.46 16.1172C31.0867 16.2772 30.64 16.3572 30.12 16.3572ZM30.92 14.0772C31.2533 14.0772 31.5533 14.0305 31.82 13.9372C32.0867 13.8305 32.32 13.6839 32.52 13.4972C32.72 13.2972 32.8933 13.0505 33.04 12.7572V10.6172C32.9333 10.3239 32.7733 10.0772 32.56 9.87719C32.3467 9.66385 32.0933 9.50385 31.8 9.39719C31.5067 9.27719 31.18 9.21719 30.82 9.21719C30.42 9.21719 30.0467 9.32385 29.7 9.53719C29.3667 9.73719 29.1 10.0172 28.9 10.3772C28.7 10.7372 28.6 11.1505 28.6 11.6172C28.6 12.0839 28.7067 12.5039 28.92 12.8772C29.1333 13.2505 29.4133 13.5439 29.76 13.7572C30.12 13.9705 30.5067 14.0772 30.92 14.0772ZM45.2291 0.337187H48.0291V16.1172H45.2291V0.337187ZM54.5927 16.3572C53.7793 16.3572 53.0393 16.1972 52.3727 15.8772C51.7193 15.5439 51.1993 15.0372 50.8127 14.3572C50.426 13.6772 50.2327 12.8105 50.2327 11.7572C50.2327 10.7705 50.4327 9.91719 50.8327 9.19719C51.2327 8.47719 51.7593 7.92385 52.4127 7.53719C53.066 7.13719 53.7593 6.93719 54.4927 6.93719C55.3593 6.93719 56.0127 7.08385 56.4527 7.37719C56.906 7.65719 57.2793 7.97052 57.5727 8.31719L57.4527 8.65719L57.7127 7.37719H60.3127V16.1172H57.5127V14.2172L57.7327 14.8172C57.706 14.8172 57.626 14.8972 57.4927 15.0572C57.3593 15.2039 57.1593 15.3839 56.8927 15.5972C56.6393 15.7972 56.3193 15.9705 55.9327 16.1172C55.5593 16.2772 55.1127 16.3572 54.5927 16.3572ZM55.3927 14.0772C55.726 14.0772 56.026 14.0305 56.2927 13.9372C56.5593 13.8305 56.7927 13.6839 56.9927 13.4972C57.1927 13.2972 57.366 13.0505 57.5127 12.7572V10.6172C57.406 10.3239 57.246 10.0772 57.0327 9.87719C56.8193 9.66385 56.566 9.50385 56.2727 9.39719C55.9793 9.27719 55.6527 9.21719 55.2927 9.21719C54.8927 9.21719 54.5193 9.32385 54.1727 9.53719C53.8393 9.73719 53.5727 10.0172 53.3727 10.3772C53.1727 10.7372 53.0727 11.1505 53.0727 11.6172C53.0727 12.0839 53.1793 12.5039 53.3927 12.8772C53.606 13.2505 53.886 13.5439 54.2327 13.7572C54.5927 13.9705 54.9793 14.0772 55.3927 14.0772ZM66.8778 16.3572C66.0645 16.3572 65.3245 16.1972 64.6578 15.8772C64.0045 15.5439 63.4845 15.0372 63.0978 14.3572C62.7111 13.6772 62.5178 12.8105 62.5178 11.7572C62.5178 10.7705 62.7178 9.91719 63.1178 9.19719C63.5178 8.47719 64.0445 7.92385 64.6978 7.53719C65.3511 7.13719 66.0445 6.93719 66.7778 6.93719C67.6445 6.93719 68.2978 7.08385 68.7378 7.37719C69.1911 7.65719 69.5645 7.97052 69.8578 8.31719L69.7378 8.65719L69.9978 7.37719H72.5978V16.1172H69.7978V14.2172L70.0178 14.8172C69.9911 14.8172 69.9111 14.8972 69.7778 15.0572C69.6445 15.2039 69.4445 15.3839 69.1778 15.5972C68.9245 15.7972 68.6045 15.9705 68.2178 16.1172C67.8445 16.2772 67.3978 16.3572 66.8778 16.3572ZM67.6778 14.0772C68.0111 14.0772 68.3111 14.0305 68.5778 13.9372C68.8445 13.8305 69.0778 13.6839 69.2778 13.4972C69.4778 13.2972 69.6511 13.0505 69.7978 12.7572V10.6172C69.6911 10.3239 69.5311 10.0772 69.3178 9.87719C69.1045 9.66385 68.8511 9.50385 68.5578 9.39719C68.2645 9.27719 67.9378 9.21719 67.5778 9.21719C67.1778 9.21719 66.8045 9.32385 66.4578 9.53719C66.1245 9.73719 65.8578 10.0172 65.6578 10.3772C65.4578 10.7372 65.3578 11.1505 65.3578 11.6172C65.3578 12.0839 65.4645 12.5039 65.6778 12.8772C65.8911 13.2505 66.1711 13.5439 66.5178 13.7572C66.8778 13.9705 67.2645 14.0772 67.6778 14.0772Z" fill="#4477B8"/>
<path d="M42 2C42 3.10457 41.3284 4 40.5 4C39.6716 4 39 3.10457 39 2C39 0.89543 39.6716 0 40.5 0C41.3284 0 42 0.89543 42 2Z" fill="#A9C7E2"/>
<path d="M39 5H42V16H39V5Z" fill="#4477B8"/>
</svg>
