<svg width="20" height="21" viewBox="0 0 20 21" fill="none" xmlns="http://www.w3.org/2000/svg">
<path fill-rule="evenodd" clip-rule="evenodd" d="M9.99998 0C4.47717 0 0 4.70098 0 10.5C0 16.2989 4.47717 21 9.99998 21C15.5229 21 20 16.299 20 10.5C20 4.70098 15.5229 0 9.99998 0ZM9.99998 18.9C5.58881 18.9 2.00001 15.1318 2.00001 10.5C2.00001 5.8682 5.58876 2.10001 9.99998 2.10001C14.4112 2.10001 18 5.8682 18 10.5C18 15.1318 14.4112 18.9 9.99998 18.9ZM11.2522 6.29999C11.2522 7.06131 10.7243 7.61251 10.0101 7.61251C9.26713 7.61251 8.75217 7.06126 8.75217 6.28543C8.75217 5.53976 9.28106 4.98753 10.0101 4.98753C10.7243 4.98753 11.2522 5.53976 11.2522 6.29999ZM9.0022 9.44999H11.0022V15.75H9.0022V9.44999Z" fill="#4477B8"/>
</svg>
