<svg width="16" height="20" viewBox="0 0 16 20" fill="none" xmlns="http://www.w3.org/2000/svg">
<path fill-rule="evenodd" clip-rule="evenodd" d="M7.53296 4C7.93078 4 8.31231 3.84196 8.59362 3.56066C8.87492 3.27936 9.03296 2.89782 9.03296 2.5C9.03296 2.10218 8.87492 1.72064 8.59362 1.43934C8.31231 1.15804 7.93078 1 7.53296 1C7.13513 1 6.7536 1.15804 6.4723 1.43934C6.19099 1.72064 6.03296 2.10218 6.03296 2.5C6.03296 2.89782 6.19099 3.27936 6.4723 3.56066C6.7536 3.84196 7.13513 4 7.53296 4ZM7.53296 5C8.196 5 8.83188 4.73661 9.30073 4.26777C9.76957 3.79893 10.033 3.16304 10.033 2.5C10.033 1.83696 9.76957 1.20107 9.30073 0.732233C8.83188 0.263392 8.196 0 7.53296 0C6.86992 0 6.23403 0.263392 5.76519 0.732233C5.29635 1.20107 5.03296 1.83696 5.03296 2.5C5.03296 3.16304 5.29635 3.79893 5.76519 4.26777C6.23403 4.73661 6.86992 5 7.53296 5Z" fill="#4477B8"/>
<path fill-rule="evenodd" clip-rule="evenodd" d="M4.22002 7.15737C4.44879 7.20092 4.65519 7.32295 4.80361 7.50241C4.95203 7.68186 5.03317 7.90749 5.03302 8.14037V18.5004C5.03302 18.633 5.08569 18.7602 5.17946 18.8539C5.27323 18.9477 5.40041 19.0004 5.53302 19.0004H5.57652C5.70134 19.0004 5.82165 18.9537 5.9138 18.8695C6.00596 18.7853 6.06328 18.6697 6.07452 18.5454L6.53302 13.5004C6.53302 13.2352 6.63837 12.9808 6.82591 12.7933C7.01345 12.6057 7.2678 12.5004 7.53302 12.5004C7.79823 12.5004 8.05259 12.6057 8.24012 12.7933C8.42766 12.9808 8.53302 13.2352 8.53302 13.5004L8.99152 18.5454C9.00275 18.6697 9.06008 18.7853 9.15223 18.8695C9.24438 18.9537 9.36469 19.0004 9.48952 19.0004H9.53302C9.66562 19.0004 9.7928 18.9477 9.88657 18.8539C9.98034 18.7602 10.033 18.633 10.033 18.5004V8.15887C10.033 7.92608 10.1142 7.70057 10.2626 7.52121C10.411 7.34186 10.6173 7.21991 10.846 7.17637C11.724 7.00937 12.6525 6.77787 13.673 6.48037C13.736 6.46199 13.7948 6.43137 13.846 6.39026C13.8972 6.34915 13.9398 6.29836 13.9714 6.24079C14.003 6.18322 14.0229 6.11999 14.0301 6.05472C14.0372 5.98945 14.0314 5.92341 14.013 5.86037C13.9946 5.79734 13.964 5.73854 13.9229 5.68734C13.8818 5.63614 13.831 5.59354 13.7734 5.56197C13.7159 5.5304 13.6526 5.51047 13.5874 5.50334C13.5221 5.4962 13.4561 5.50199 13.393 5.52037C11.076 6.19537 9.29802 6.50837 7.53502 6.50037C5.77002 6.49237 3.99002 6.16337 1.66652 5.51887C1.60281 5.49988 1.53595 5.49377 1.46986 5.50093C1.40376 5.50808 1.33976 5.52834 1.28159 5.56052C1.22342 5.5927 1.17225 5.63616 1.13108 5.68836C1.0899 5.74055 1.05955 5.80043 1.0418 5.8645C1.02404 5.92857 1.01924 5.99553 1.02768 6.06147C1.03612 6.12741 1.05762 6.19101 1.09093 6.24854C1.12424 6.30608 1.16868 6.35639 1.22167 6.39654C1.27466 6.43669 1.33512 6.46587 1.39952 6.48237C2.41602 6.76437 3.34252 6.99037 4.22002 7.15737ZM7.02202 18.9019C6.93425 19.2178 6.74539 19.4963 6.48433 19.6946C6.22327 19.893 5.9044 20.0004 5.57652 20.0004H5.53302C5.13519 20.0004 4.75366 19.8423 4.47236 19.561C4.19105 19.2797 4.03302 18.8982 4.03302 18.5004V8.14037C3.12002 7.96637 2.16552 7.73237 1.13202 7.44537C0.938257 7.39634 0.756251 7.30908 0.59669 7.18872C0.437128 7.06836 0.30323 6.91732 0.20286 6.74449C0.10249 6.57165 0.0376727 6.3805 0.0122164 6.18226C-0.0132398 5.98402 0.00117808 5.78269 0.054623 5.59011C0.108068 5.39752 0.199462 5.21755 0.323437 5.06078C0.447411 4.90401 0.601465 4.7736 0.776549 4.6772C0.951633 4.58081 1.14422 4.52037 1.34299 4.49945C1.54175 4.47853 1.7427 4.49754 1.93402 4.55537C4.21902 5.18887 5.90152 5.49287 7.53952 5.50037C9.17252 5.50737 10.8485 5.22037 13.1135 4.56037C13.3035 4.5022 13.5032 4.48235 13.7009 4.50199C13.8986 4.52162 14.0905 4.58035 14.2654 4.67476C14.4402 4.76917 14.5946 4.89737 14.7194 5.05193C14.8443 5.20649 14.9372 5.38433 14.9928 5.5751C15.0484 5.76588 15.0655 5.9658 15.0432 6.16325C15.0208 6.36069 14.9595 6.55174 14.8627 6.72528C14.7659 6.89882 14.6356 7.0514 14.4794 7.17416C14.3231 7.29692 14.144 7.38741 13.9525 7.44037C12.9105 7.74437 11.9505 7.98437 11.033 8.15887V18.5004C11.033 18.8982 10.875 19.2797 10.5937 19.561C10.3124 19.8423 9.93084 20.0004 9.53302 20.0004H9.48952C9.1152 20.0004 8.7544 19.8605 8.47797 19.6081C8.20154 19.3558 8.02945 19.0091 7.99552 18.6364L7.53702 13.5914C7.53438 13.5619 7.53304 13.5324 7.53302 13.5029C7.53302 13.5322 7.53168 13.5615 7.52902 13.5909L7.07002 18.6359C7.06205 18.7258 7.04599 18.8148 7.02202 18.9019Z" fill="#4477B8"/>
</svg>
