<svg width="18" height="19" viewBox="0 0 18 19" fill="none" xmlns="http://www.w3.org/2000/svg">
<path d="M1.616 16C1.17133 16 0.791 15.8417 0.475 15.525C0.159 15.2083 0.000666667 14.8287 0 14.386V1.615C0 1.171 0.158333 0.791 0.475 0.475C0.791667 0.159 1.17167 0.000666667 1.615 0H14.385C14.829 0 15.209 0.158333 15.525 0.475C15.841 0.791667 15.9993 1.17167 16 1.615V6.731C16 6.87233 15.952 6.991 15.856 7.087C15.76 7.183 15.641 7.231 15.499 7.231C15.357 7.231 15.2383 7.183 15.143 7.087C15.0477 6.991 15 6.87233 15 6.731V1.616C15 1.462 14.936 1.32067 14.808 1.192C14.68 1.06333 14.5387 0.999333 14.384 1H1.616C1.462 1 1.32067 1.064 1.192 1.192C1.06333 1.32 0.999333 1.46133 1 1.616V14.385C1 14.5383 1.064 14.6793 1.192 14.808C1.32 14.9367 1.461 15.0007 1.615 15H6.731C6.87233 15 6.991 15.048 7.087 15.144C7.183 15.24 7.231 15.359 7.231 15.501C7.231 15.643 7.183 15.7617 7.087 15.857C6.991 15.9523 6.87233 16 6.731 16H1.616ZM1 14.007V15V1V7.306V7.231V14.007ZM3.5 11.77C3.5 11.912 3.548 12.0307 3.644 12.126C3.74 12.2213 3.85867 12.269 4 12.269H6.96C7.10133 12.269 7.22 12.221 7.316 12.125C7.412 12.029 7.45967 11.9103 7.459 11.769C7.45833 11.6277 7.41067 11.509 7.316 11.413C7.22133 11.317 7.10233 11.269 6.959 11.269H4C3.858 11.269 3.73933 11.317 3.644 11.413C3.548 11.509 3.5 11.628 3.5 11.77ZM3.5 8C3.5 8.14267 3.548 8.26167 3.644 8.357C3.74 8.45233 3.85867 8.5 4 8.5H10.48C10.622 8.5 10.741 8.452 10.837 8.356C10.933 8.26 10.981 8.141 10.981 7.999C10.981 7.857 10.933 7.73833 10.837 7.643C10.741 7.54767 10.6223 7.5 10.481 7.5H4C3.858 7.5 3.73933 7.548 3.644 7.644C3.54867 7.74 3.50067 7.859 3.5 8.001M3.5 4.231C3.5 4.373 3.548 4.492 3.644 4.588C3.74 4.684 3.85867 4.73133 4 4.73H12C12.142 4.73 12.2607 4.682 12.356 4.586C12.452 4.49 12.5 4.371 12.5 4.229C12.5 4.087 12.452 3.96833 12.356 3.873C12.26 3.77767 12.1413 3.73033 12 3.731H4C3.858 3.731 3.73933 3.779 3.644 3.875C3.54867 3.971 3.50067 4.09 3.5 4.232M14 18.116C12.886 18.116 11.941 17.7277 11.165 16.951C10.3883 16.175 10 15.23 10 14.116C10 13.002 10.3883 12.0567 11.165 11.28C11.9417 10.5033 12.8867 10.1153 14 10.116C15.1133 10.1167 16.0587 10.5047 16.836 11.28C17.6133 12.0553 18.0013 13.0007 18 14.116C18 15.2293 17.612 16.1743 16.836 16.951C16.0587 17.7277 15.1133 18.116 14 18.116ZM14 14.116C14.4167 14.116 14.771 13.97 15.063 13.678C15.355 13.386 15.5007 13.032 15.5 12.616C15.4993 12.2 15.3537 11.8457 15.063 11.553C14.7723 11.2603 14.418 11.1147 14 11.116C13.582 11.1173 13.228 11.263 12.938 11.553C12.648 11.843 12.502 12.1973 12.5 12.616C12.498 13.0347 12.644 13.3887 12.938 13.678C13.232 13.9673 13.586 14.1133 14 14.116ZM14 17.116C14.4373 17.116 14.847 17.0303 15.229 16.859C15.611 16.6877 15.9437 16.439 16.227 16.113C16.3017 16.0263 16.3273 15.9323 16.304 15.831C16.2807 15.7297 16.2217 15.65 16.127 15.592C15.8017 15.422 15.4617 15.2963 15.107 15.215C14.7523 15.133 14.3833 15.092 14 15.092C13.6167 15.092 13.2477 15.1337 12.893 15.217C12.5383 15.3003 12.1983 15.4253 11.873 15.592C11.7783 15.646 11.7193 15.7247 11.696 15.828C11.6727 15.9313 11.6983 16.0267 11.773 16.114C12.0563 16.4393 12.389 16.6877 12.771 16.859C13.153 17.0297 13.5627 17.116 14 17.116Z" fill="#4477B8"/>
</svg>
