<svg width="24" height="25" viewBox="0 0 24 25" fill="none" xmlns="http://www.w3.org/2000/svg">
<path d="M18 15.0254H6L2 19.0254V3.02539C2 2.76017 2.10536 2.50582 2.29289 2.31828C2.48043 2.13075 2.73478 2.02539 3 2.02539H18C18.2652 2.02539 18.5196 2.13075 18.7071 2.31828C18.8946 2.50582 19 2.76017 19 3.02539V14.0254C19 14.2906 18.8946 14.545 18.7071 14.7325C18.5196 14.92 18.2652 15.0254 18 15.0254ZM23 9.02539V23.0254L19 19.0254H8C7.73478 19.0254 7.48043 18.92 7.29289 18.7325C7.10536 18.545 7 18.2906 7 18.0254V17.0254H21V8.02539H22C22.2652 8.02539 22.5196 8.13075 22.7071 8.31828C22.8946 8.50582 23 8.76017 23 9.02539ZM8.19 4.02539C7.32 4.02539 6.62 4.22539 6.08 4.61539C5.56 5.02539 5.3 5.59539 5.31 6.38539L5.32 6.41539H7.25C7.26 6.11539 7.35 5.88539 7.53 5.72539C7.71517 5.57183 7.9495 5.49018 8.19 5.49539C8.5 5.49539 8.76 5.59539 8.94 5.77539C9.12 5.96539 9.2 6.22539 9.2 6.52539C9.2 6.84539 9.13 7.11539 8.97 7.34539C8.83 7.57539 8.62 7.77539 8.36 7.93539C7.85 8.27539 7.5 8.57539 7.31 8.84539C7.11 9.10539 7 9.52539 7 10.0254H9C9 9.71539 9.04 9.46539 9.13 9.28539C9.22 9.10539 9.39 8.92539 9.64 8.76539C10.09 8.52539 10.46 8.23539 10.75 7.83539C11.04 7.43539 11.19 7.02539 11.19 6.52539C11.19 5.76539 10.92 5.15539 10.38 4.70539C9.85 4.25539 9.12 4.02539 8.19 4.02539ZM7 11.0254V13.0254H9V11.0254H7ZM13 13.0254H15V11.0254H13V13.0254ZM13 4.02539V10.0254H15V4.02539H13Z" fill="#4477B8"/>
</svg>
