<svg width="20" height="20" viewBox="0 0 20 20" fill="none" xmlns="http://www.w3.org/2000/svg">
<path d="M12.7701 10.4C12.9201 10.47 13.0901 10.5 13.2501 10.5C13.5801 10.5 13.8901 10.37 14.1301 10.14L16.3101 8H17.2501C18.7701 8 20.0001 6.77 20.0001 5.25V2.75C20.0001 1.23 18.7701 0 17.2501 0H12.7501C11.2301 0 10.0001 1.23 10.0001 2.75V5.25C10.0001 6.51 10.8501 7.57 12.0001 7.9V9.25C12.0001 9.75 12.3101 10.2 12.7701 10.4ZM11.5001 2.75C11.5001 2.06 12.0601 1.5 12.7501 1.5H17.2501C17.9401 1.5 18.5001 2.06 18.5001 2.75V5.25C18.5001 5.94 17.9401 6.5 17.2501 6.5H15.6901L13.5001 8.65V6.5H12.7501C12.0601 6.5 11.5001 5.94 11.5001 5.25V2.75ZM6.0001 11.5C4.0701 11.5 2.5001 9.93 2.5001 8C2.5001 6.07 4.0701 4.5 6.0001 4.5C7.9301 4.5 9.5001 6.07 9.5001 8C9.5001 9.93 7.9301 11.5 6.0001 11.5ZM6.0001 6C4.9001 6 4.0001 6.9 4.0001 8C4.0001 9.1 4.9001 10 6.0001 10C7.1001 10 8.0001 9.1 8.0001 8C8.0001 6.9 7.1001 6 6.0001 6ZM6.0001 20C3.9401 20 2.3601 19.44 1.3001 18.33C-0.0358958 16.926 -0.00289585 15.156 0.000104153 14.973V14.96C0.000104153 13.89 0.900104 13 2.0001 13H10.0001C11.1001 13 12.0001 13.9 12.0001 15L12.0011 15.006C12.0041 15.133 12.0461 16.916 10.7011 18.33C9.6401 19.44 8.0601 20 6.0001 20ZM2.0001 14.5C1.7201 14.5 1.5001 14.72 1.5001 15V15.005C1.5001 15.1 1.4831 16.353 2.4001 17.31C3.1601 18.1 4.3701 18.5 6.0001 18.5C7.6301 18.5 8.8501 18.09 9.6101 17.29C10.5231 16.338 10.5021 15.098 10.5001 15.032V15.03C10.5001 14.72 10.2701 14.49 10.0001 14.49H2.0001V14.5Z" fill="#4477B8"/>
</svg>
