<svg width="20" height="20" viewBox="0 0 20 20" fill="none" xmlns="http://www.w3.org/2000/svg">
<path d="M3.38867 10.0005H3.00781L10 16.9927L15.7422 11.2505H17.5098L10 18.7602L1.55273 10.3227C1.32487 10.0949 1.12305 9.85073 0.947266 9.59031C0.771484 9.32989 0.61849 9.04994 0.488281 8.75046H2.86133L5.625 5.99656L10 10.3618L13.125 7.24656L14.6387 8.75046H18.1055C18.3138 8.41843 18.4733 8.06687 18.584 7.69578C18.6947 7.32468 18.75 6.94382 18.75 6.5532C18.75 5.98679 18.6458 5.45945 18.4375 4.97117C18.2292 4.48289 17.9395 4.05971 17.5684 3.70164C17.1973 3.34356 16.7676 3.06036 16.2793 2.85203C15.791 2.64369 15.2604 2.53953 14.6875 2.53953C14.1406 2.53953 13.6556 2.62416 13.2324 2.79343C12.8092 2.9627 12.4186 3.19057 12.0605 3.47703C11.7025 3.76349 11.3607 4.07924 11.0352 4.42429C10.7096 4.76935 10.3646 5.13067 10 5.50828C9.64844 5.15671 9.30664 4.8019 8.97461 4.44382C8.64258 4.08575 8.29753 3.76349 7.93945 3.47703C7.58138 3.19057 7.1875 2.95619 6.75781 2.7739C6.32812 2.59161 5.84635 2.50047 5.3125 2.50047C4.7526 2.50047 4.22852 2.60463 3.74023 2.81297C3.25195 3.0213 2.82227 3.31101 2.45117 3.68211C2.08008 4.0532 1.79036 4.48289 1.58203 4.97117C1.3737 5.45945 1.26628 5.98679 1.25977 6.5532C1.25977 6.85919 1.29557 7.17494 1.36719 7.50046H0.0878906C0.0553385 7.34421 0.0358073 7.18796 0.0292969 7.03171C0.0227865 6.87546 0.016276 6.71921 0.00976562 6.56296C0.00976562 5.82729 0.146484 5.13718 0.419922 4.49265C0.693359 3.84812 1.07096 3.28497 1.55273 2.8032C2.03451 2.32143 2.59766 1.94382 3.24219 1.67039C3.88672 1.39695 4.57682 1.25698 5.3125 1.25047C5.85286 1.25047 6.33464 1.31231 6.75781 1.43601C7.18099 1.55971 7.57161 1.72898 7.92969 1.94382C8.28776 2.15867 8.63281 2.42234 8.96484 2.73484C9.29688 3.04734 9.64193 3.38263 10 3.7407C10.3581 3.37612 10.6999 3.04083 11.0254 2.73484C11.3509 2.42885 11.696 2.16843 12.0605 1.95359C12.4251 1.73875 12.819 1.56622 13.2422 1.43601C13.6654 1.3058 14.1471 1.24395 14.6875 1.25047C15.4167 1.25047 16.1035 1.38718 16.748 1.66062C17.3926 1.93406 17.9525 2.31166 18.4277 2.79343C18.903 3.2752 19.2806 3.8351 19.5605 4.47312C19.8405 5.11114 19.9805 5.79799 19.9805 6.53367C19.9805 7.16518 19.8698 7.77716 19.6484 8.36961C19.4271 8.96205 19.1113 9.50567 18.7012 10.0005H14.1113L13.125 9.00437L10 12.1391L5.625 7.75437L3.38867 10.0005Z" fill="#4477B8"/>
</svg>
