<svg width="26" height="36" viewBox="0 0 26 36" fill="none" xmlns="http://www.w3.org/2000/svg">
<path d="M13 17.1648L10.0936 19.5847C9.93138 19.6994 9.77538 19.7014 9.62557 19.5906C9.47576 19.4798 9.43181 19.3347 9.49372 19.1553L10.5931 15.2277L7.69971 12.9918C7.54495 12.877 7.50471 12.7253 7.579 12.5367C7.65329 12.3481 7.77462 12.2531 7.943 12.2518H11.544L12.6434 8.34791C12.7053 8.16852 12.8242 8.07882 13 8.07882C13.1758 8.07882 13.2947 8.16852 13.3566 8.34791L14.4579 12.2518H18.0459C18.2155 12.2518 18.3393 12.3461 18.4173 12.5347C18.4953 12.7234 18.4563 12.8751 18.3003 12.9898L15.3976 15.2277L16.497 19.1553C16.5589 19.3347 16.515 19.4798 16.3651 19.5906C16.2153 19.7014 16.0593 19.6994 15.8971 19.5847L13 17.1648ZM13 33.5618L5.64014 35.9045C5.16348 36.0852 4.72333 36.0094 4.31971 35.677C3.9161 35.3446 3.71429 34.9119 3.71429 34.379V23.4885C2.5381 22.2565 1.625 20.8134 0.975 19.1592C0.325 17.5051 0 15.7355 0 13.8505C0 9.98953 1.26038 6.71619 3.78114 4.03051C6.3019 1.34482 9.37486 0.00132007 13 9.70877e-07C16.6251 -0.00131813 19.6981 1.34152 22.2189 4.02853C24.7396 6.71553 26 9.98953 26 13.8505C26 15.7355 25.675 17.5051 25.025 19.1592C24.375 20.8134 23.4619 22.2558 22.2857 23.4865V34.377C22.2857 34.9099 22.0839 35.3426 21.6803 35.675C21.2767 36.0074 20.8371 36.0833 20.3617 35.9026L13 33.5618ZM13 25.7224C16.0952 25.7224 18.7262 24.5682 20.8929 22.2598C23.0595 19.9514 24.1429 17.1483 24.1429 13.8505C24.1429 10.5528 23.0595 7.7497 20.8929 5.44128C18.7262 3.13286 16.0952 1.97865 13 1.97865C9.90476 1.97865 7.27381 3.13286 5.10714 5.44128C2.94048 7.7497 1.85714 10.5528 1.85714 13.8505C1.85714 17.1483 2.94048 19.9514 5.10714 22.2598C7.27381 24.5682 9.90476 25.7224 13 25.7224ZM5.57143 33.7241L13 31.506L20.4286 33.7241V25.1565C19.3935 25.9678 18.2427 26.5943 16.9761 27.0362C15.712 27.4795 14.3867 27.7011 13 27.7011C11.6133 27.7011 10.288 27.4801 9.02386 27.0382C7.75976 26.5963 6.60895 25.9691 5.57143 25.1565V33.7241Z" fill="white"/>
</svg>
