<svg width="20" height="22" viewBox="0 0 20 22" fill="none" xmlns="http://www.w3.org/2000/svg">
<path d="M10 10.4896L7.76429 11.9684C7.63952 12.0385 7.51952 12.0397 7.40429 11.972C7.28905 11.9043 7.25524 11.8156 7.30286 11.706L8.14857 9.3058L5.92286 7.93943C5.80381 7.8693 5.77286 7.7766 5.83 7.66132C5.88714 7.54605 5.98048 7.48801 6.11 7.4872H8.88L9.72571 5.1015C9.77333 4.99187 9.86476 4.93706 10 4.93706C10.1352 4.93706 10.2267 4.99187 10.2743 5.1015L11.1214 7.4872H13.8814C14.0119 7.4872 14.1071 7.54484 14.1671 7.66011C14.2271 7.77539 14.1971 7.86809 14.0771 7.93822L11.8443 9.3058L12.69 11.706C12.7376 11.8156 12.7038 11.9043 12.5886 11.972C12.4733 12.0397 12.3533 12.0385 12.2286 11.9684L10 10.4896ZM10 20.51L4.33857 21.9417C3.9719 22.0521 3.63333 22.0057 3.32286 21.8026C3.01238 21.5995 2.85714 21.3351 2.85714 21.0094V14.3541C1.95238 13.6012 1.25 12.7193 0.75 11.7084C0.25 10.6976 0 9.61615 0 8.46421C0 6.10471 0.969524 4.10434 2.90857 2.46309C4.84762 0.821836 7.21143 0.000806709 10 5.93314e-07C12.7886 -0.000805522 15.1524 0.81982 17.0914 2.46188C19.0305 4.10393 20 6.10471 20 8.46421C20 9.61615 19.75 10.6976 19.25 11.7084C18.75 12.7193 18.0476 13.6008 17.1429 14.3529V21.0082C17.1429 21.3338 16.9876 21.5983 16.6771 21.8014C16.3667 22.0045 16.0286 22.0509 15.6629 21.9404L10 20.51ZM10 15.7193C12.381 15.7193 14.4048 15.0139 16.0714 13.6032C17.7381 12.1925 18.5714 10.4795 18.5714 8.46421C18.5714 6.44892 17.7381 4.73593 16.0714 3.32523C14.4048 1.91452 12.381 1.20917 10 1.20917C7.61905 1.20917 5.59524 1.91452 3.92857 3.32523C2.2619 4.73593 1.42857 6.44892 1.42857 8.46421C1.42857 10.4795 2.2619 12.1925 3.92857 13.6032C5.59524 15.0139 7.61905 15.7193 10 15.7193ZM4.28571 20.6091L10 19.2537L15.7143 20.6091V15.3734C14.9181 15.8692 14.0329 16.2521 13.0586 16.5221C12.0862 16.793 11.0667 16.9284 10 16.9284C8.93333 16.9284 7.91381 16.7934 6.94143 16.5234C5.96905 16.2533 5.08381 15.87 4.28571 15.3734V20.6091Z" fill="#4477B8"/>
</svg>
