<svg width="18" height="18" viewBox="0 0 18 18" fill="none" xmlns="http://www.w3.org/2000/svg">
<path d="M15.8779 9.6875C15.8779 8.32775 15.4747 6.99854 14.7193 5.86795C13.9639 4.73737 12.8901 3.85618 11.6339 3.33583C10.3776 2.81548 8.99531 2.67933 7.66169 2.9446C6.32807 3.20987 5.10306 3.86465 4.14158 4.82614C3.18009 5.78763 2.52531 7.01263 2.26004 8.34625C1.99477 9.67987 2.13091 11.0622 2.65127 12.3184C3.17162 13.5747 4.0528 14.6484 5.18339 15.4039C6.31398 16.1593 7.64319 16.5625 9.00294 16.5625C10.8263 16.5625 12.575 15.8382 13.8643 14.5489C15.1536 13.2595 15.8779 11.5109 15.8779 9.6875ZM4.10665 1.91918C3.74587 1.61046 3.28726 1.43977 2.81243 1.4375L2.69255 1.44094C1.5947 1.50711 0.74993 2.46875 0.752938 3.62891C0.752938 4.19652 0.953172 4.46121 1.22044 4.79895C1.23704 4.82065 1.25801 4.83863 1.28199 4.85173C1.30597 4.86483 1.33242 4.87276 1.35966 4.875H1.39747C1.41876 4.87462 1.43968 4.86934 1.4586 4.85958C1.47753 4.84982 1.49396 4.83584 1.50661 4.81871L4.11782 2.25391C4.14012 2.23136 4.15754 2.20446 4.16899 2.17489C4.18045 2.14533 4.1857 2.11372 4.18442 2.08203C4.18334 2.051 4.17588 2.02052 4.16249 1.99251C4.14911 1.96449 4.1301 1.93953 4.10665 1.91918ZM13.8932 1.91918C14.254 1.61046 14.7126 1.43977 15.1874 1.4375L15.3073 1.44094C16.4052 1.50711 17.2499 2.46875 17.2469 3.62891C17.2469 4.19652 17.0467 4.46121 16.7794 4.79895C16.7628 4.82057 16.7418 4.83847 16.7178 4.85149C16.6938 4.86452 16.6674 4.87238 16.6402 4.87457H16.6024C16.5811 4.87419 16.5602 4.86891 16.5413 4.85915C16.5223 4.84939 16.5059 4.83541 16.4933 4.81828L13.882 2.25391C13.8597 2.23136 13.8423 2.20446 13.8309 2.17489C13.8194 2.14533 13.8142 2.11372 13.8154 2.08203C13.8165 2.051 13.824 2.02052 13.8374 1.99251C13.8507 1.96449 13.8698 1.93953 13.8932 1.91918Z" stroke="#4477B8" stroke-width="1.5" stroke-miterlimit="10"/>
</svg>
