<svg width="44" height="40" viewBox="0 0 44 40" fill="none" xmlns="http://www.w3.org/2000/svg">
<path fill-rule="evenodd" clip-rule="evenodd" d="M17.1116 39.8003H26.8884C33.7546 39.8003 37.1888 39.8003 39.655 38.1833C40.7194 37.4862 41.636 36.5861 42.3522 35.5345C44 33.1145 44 29.7419 44 23.0011C44 16.2603 44 12.8877 42.3522 10.4677C41.636 9.41608 40.7194 8.51599 39.655 7.8189C38.071 6.7783 36.0866 6.4065 33.0484 6.2745C31.5986 6.2745 30.3512 5.1965 30.0674 3.7995C29.8505 2.77621 29.287 1.85918 28.4721 1.20339C27.6571 0.547602 26.6408 0.193277 25.5948 0.200298H18.4052C16.2316 0.200298 14.3594 1.7073 13.9326 3.7995C13.6488 5.1965 12.4014 6.2745 10.9516 6.2745C7.9156 6.4065 5.9312 6.7805 4.345 7.8189C3.28138 8.51621 2.3656 9.41629 1.65 10.4677C0 12.8877 0 16.2581 0 23.0011C0 29.7441 1.3113e-07 33.1123 1.6478 35.5345C2.3606 36.5817 3.2758 37.4815 4.345 38.1833C6.8112 39.8003 10.2454 39.8003 17.1116 39.8003ZM22 14.0009C16.9378 14.0009 12.8326 18.0291 12.8326 22.9989C12.8326 27.9687 16.94 32.0035 22 32.0035C27.06 32.0035 31.1674 27.9731 31.1674 23.0033C31.1674 18.0335 27.06 14.0009 22 14.0009ZM22 17.6001C18.964 17.6001 16.5 20.0179 16.5 23.0011C16.5 25.9821 18.964 28.3999 22 28.3999C25.036 28.3999 27.5 25.9821 27.5 23.0011C27.5 20.0201 25.036 17.6001 22 17.6001ZM32.3884 15.8005C32.3884 14.8061 33.209 14.0009 34.2232 14.0009H36.6652C37.6772 14.0009 38.5 14.8061 38.5 15.8005C38.4954 16.2821 38.2997 16.7421 37.9561 17.0795C37.6125 17.417 37.149 17.6042 36.6674 17.6001H34.2232C33.9846 17.6024 33.7478 17.5577 33.5264 17.4685C33.3051 17.3793 33.1034 17.2474 32.9331 17.0803C32.7627 16.9132 32.6269 16.7142 32.5334 16.4946C32.44 16.275 32.3907 16.0391 32.3884 15.8005Z" fill="#C3C3C3"/>
</svg>
