<svg width="20" height="21" viewBox="0 0 20 21" fill="none" xmlns="http://www.w3.org/2000/svg">
<path d="M7 0.5C6.46957 0.5 5.96086 0.710714 5.58579 1.08579C5.21071 1.46086 5 1.96957 5 2.5H14C14.5304 2.5 15.0391 2.71071 15.4142 3.08579C15.7893 3.46086 16 3.96957 16 4.5V16.5C16.5304 16.5 17.0391 16.2893 17.4142 15.9142C17.7893 15.5391 18 15.0304 18 14.5V2.5C18 1.96957 17.7893 1.46086 17.4142 1.08579C17.0391 0.710714 16.5304 0.5 16 0.5H7Z" fill="#4477B8"/>
<path d="M13 20.5C13.5304 20.5 14.0391 20.2893 14.4142 19.9142C14.7893 19.5391 15 19.0304 15 18.5V5.5C15 4.96957 14.7893 4.46086 14.4142 4.08579C14.0391 3.71071 13.5304 3.5 13 3.5H4C3.46957 3.5 2.96086 3.71071 2.58579 4.08579C2.21071 4.46086 2 4.96957 2 5.5V18.5C2 19.0304 2.21071 19.5391 2.58579 19.9142C2.96086 20.2893 3.46957 20.5 4 20.5H13ZM9 5.5H13V10.5H9V5.5ZM4 5.5H8V6.5H4V5.5ZM4 7.5H8V8.5H4V7.5ZM4 9.5H8V10.5H4V9.5ZM4 11.5H13V12.5H4V11.5ZM4 13.5H13V14.5H4V13.5ZM4 15.5H13V16.5H4V15.5Z" fill="#4477B8"/>
</svg>
