<svg width="39" height="40" viewBox="0 0 39 40" fill="none" xmlns="http://www.w3.org/2000/svg">
<path fill-rule="evenodd" clip-rule="evenodd" d="M19.2765 27.9521C19.66 27.9521 20.0277 27.7998 20.2988 27.5287C20.57 27.2575 20.7223 26.8898 20.7223 26.5064V5.35418L23.9608 9.13432C24.2102 9.42573 24.5653 9.6061 24.9477 9.63574C25.3302 9.66539 25.7088 9.54188 26.0002 9.29239C26.2916 9.0429 26.472 8.68787 26.5016 8.3054C26.5313 7.92292 26.4078 7.54434 26.1583 7.25293L20.3753 0.506121C20.2396 0.347408 20.0711 0.219983 19.8814 0.132612C19.6917 0.0452416 19.4854 0 19.2765 0C19.0677 0 18.8614 0.0452416 18.6717 0.132612C18.482 0.219983 18.3135 0.347408 18.1778 0.506121L12.3948 7.25293C12.2713 7.39722 12.1774 7.56443 12.1184 7.74501C12.0595 7.92559 12.0368 8.11601 12.0514 8.3054C12.0661 8.49478 12.118 8.67941 12.204 8.84876C12.29 9.01811 12.4086 9.16886 12.5529 9.29239C12.6972 9.41592 12.8644 9.50983 13.045 9.56874C13.2255 9.62765 13.416 9.65042 13.6053 9.63574C13.7947 9.62106 13.9794 9.56923 14.1487 9.48319C14.318 9.39716 14.4688 9.27861 14.5923 9.13432L17.8308 5.35611V26.5064C17.8308 27.3044 18.4785 27.9521 19.2765 27.9521Z" fill="#C3C3C3"/>
<path d="M26.9872 14.9404C25.634 14.9404 24.9574 14.9404 24.4697 15.2662C24.26 15.4065 24.0799 15.5866 23.9396 15.7963C23.6138 16.284 23.6138 16.9606 23.6138 18.3138V26.5064C23.6138 27.6567 23.1569 28.7599 22.3435 29.5733C21.5301 30.3867 20.4269 30.8436 19.2766 30.8436C18.1263 30.8436 17.0231 30.3867 16.2097 29.5733C15.3963 28.7599 14.9394 27.6567 14.9394 26.5064V18.3138C14.9394 16.9606 14.9394 16.284 14.6136 15.7963C14.4733 15.5866 14.2932 15.4065 14.0835 15.2662C13.5958 14.9404 12.9192 14.9404 11.566 14.9404C6.11453 14.9404 3.3869 14.9404 1.69441 16.6348C-1.14897e-07 18.3273 0 21.0511 0 26.5045V28.4321C0 33.8874 -1.14897e-07 36.6112 1.69441 38.3056C3.3869 40 6.11453 40 11.566 40H26.9872C32.4386 40 35.1663 40 36.8588 38.3056C38.5513 36.6112 38.5532 33.8855 38.5532 28.434V26.5064C38.5532 21.053 38.5532 18.3273 36.8588 16.6348C35.1663 14.9404 32.4386 14.9404 26.9872 14.9404Z" fill="#C3C3C3"/>
</svg>
