<svg width="21" height="28" viewBox="0 0 21 28" fill="none" xmlns="http://www.w3.org/2000/svg">
<path d="M15.1875 9.74971C15.1875 8.26658 17.1619 7.87283 17.685 9.26221C18.9525 12.6185 19.875 15.626 19.875 17.2497C19.875 19.7361 18.8873 22.1207 17.1291 23.8788C15.371 25.637 12.9864 26.6247 10.5 26.6247C8.0136 26.6247 5.62903 25.637 3.87087 23.8788C2.11272 22.1207 1.125 19.7361 1.125 17.2497C1.125 15.506 2.19 12.1666 3.60375 8.50658C5.43187 3.76658 6.34687 1.39658 7.4775 1.26908C7.8375 1.22783 8.23313 1.30096 8.55563 1.46971C9.5625 1.99471 9.5625 4.58033 9.5625 9.74971C9.5625 10.4956 9.85882 11.211 10.3863 11.7384C10.9137 12.2659 11.6291 12.5622 12.375 12.5622C13.1209 12.5622 13.8363 12.2659 14.3637 11.7384C14.8912 11.211 15.1875 10.4956 15.1875 9.74971Z" stroke="#4477B8" stroke-width="2"/>
<path d="M8.625 26.6247L8.13188 25.3928C7.71108 24.3439 7.57666 23.2021 7.74238 22.0842C7.9081 20.9663 8.36801 19.9126 9.075 19.0309C9.24591 18.8171 9.46274 18.6445 9.70941 18.5259C9.95609 18.4073 10.2263 18.3457 10.5 18.3457C10.7737 18.3457 11.0439 18.4073 11.2906 18.5259C11.5373 18.6445 11.7541 18.8171 11.925 19.0309C13.3613 20.8272 13.7212 23.2572 12.8681 25.3928L12.375 26.6247" stroke="#4477B8" stroke-width="2"/>
</svg>
