<svg width="39" height="27" viewBox="0 0 39 27" fill="none" xmlns="http://www.w3.org/2000/svg">
<path fill-rule="evenodd" clip-rule="evenodd" d="M29.8125 0.375C30.0611 0.375 30.2996 0.473772 30.4754 0.649588C30.6512 0.825403 30.75 1.06386 30.75 1.3125V14.4375C30.75 14.6861 30.6512 14.9246 30.4754 15.1004C30.2996 15.2762 30.0611 15.375 29.8125 15.375C29.5639 15.375 29.3254 15.2762 29.1496 15.1004C28.9738 14.9246 28.875 14.6861 28.875 14.4375V1.3125C28.875 1.06386 28.9738 0.825403 29.1496 0.649588C29.3254 0.473772 29.5639 0.375 29.8125 0.375ZM37.3125 0.375C37.5611 0.375 37.7996 0.473772 37.9754 0.649588C38.1512 0.825403 38.25 1.06386 38.25 1.3125V14.4375C38.25 14.6861 38.1512 14.9246 37.9754 15.1004C37.7996 15.2762 37.5611 15.375 37.3125 15.375C37.0639 15.375 36.8254 15.2762 36.6496 15.1004C36.4738 14.9246 36.375 14.6861 36.375 14.4375V1.3125C36.375 1.06386 36.4738 0.825403 36.6496 0.649588C36.8254 0.473772 37.0639 0.375 37.3125 0.375ZM33.5625 0.375C33.8111 0.375 34.0496 0.473772 34.2254 0.649588C34.4012 0.825403 34.5 1.06386 34.5 1.3125V14.4375C34.5 14.6861 34.4012 14.9246 34.2254 15.1004C34.0496 15.2762 33.8111 15.375 33.5625 15.375C33.3139 15.375 33.0754 15.2762 32.8996 15.1004C32.7238 14.9246 32.625 14.6861 32.625 14.4375V1.3125C32.625 1.06386 32.7238 0.825403 32.8996 0.649588C33.0754 0.473772 33.3139 0.375 33.5625 0.375Z" fill="#4477B8"/>
<path fill-rule="evenodd" clip-rule="evenodd" d="M33.5625 11.625C33.8111 11.625 34.0496 11.7238 34.2254 11.8996C34.4012 12.0754 34.5 12.3139 34.5 12.5625V25.6875C34.5 25.9361 34.4012 26.1746 34.2254 26.3504C34.0496 26.5262 33.8111 26.625 33.5625 26.625C33.3139 26.625 33.0754 26.5262 32.8996 26.3504C32.7238 26.1746 32.625 25.9361 32.625 25.6875V12.5625C32.625 12.3139 32.7238 12.0754 32.8996 11.8996C33.0754 11.7238 33.3139 11.625 33.5625 11.625ZM28.875 1.3125V6.495C28.8749 7.19145 29.0688 7.87416 29.4349 8.46662C29.801 9.05908 30.3249 9.53789 30.9478 9.84938L34.5 11.625V6.4425C34.5001 5.74605 34.3062 5.06334 33.9401 4.47088C33.574 3.87842 33.0501 3.39961 32.4272 3.08812L28.875 1.3125ZM30.75 4.34625V6.495C30.75 6.84328 30.847 7.18466 31.0302 7.4809C31.2133 7.77713 31.4753 8.01651 31.7869 8.17219L32.625 8.59125V6.4425C32.625 6.09422 32.528 5.75284 32.3448 5.4566C32.1617 5.16037 31.8997 4.92099 31.5881 4.76531L30.75 4.34625Z" fill="#4477B8"/>
<path fill-rule="evenodd" clip-rule="evenodd" d="M28.875 6.9375V12.12C28.8749 12.8165 29.0688 13.4992 29.4349 14.0916C29.801 14.6841 30.3249 15.1629 30.9478 15.4744L34.5 17.25V12.0675C34.5001 11.371 34.3062 10.6883 33.9401 10.0959C33.574 9.50342 33.0501 9.02461 32.4272 8.71312L28.875 6.9375ZM30.75 9.97125V12.12C30.75 12.4683 30.847 12.8097 31.0302 13.1059C31.2133 13.4021 31.4753 13.6415 31.7869 13.7972L32.625 14.2162V12.0675C32.625 11.7192 32.528 11.3778 32.3448 11.0816C32.1617 10.7854 31.8997 10.546 31.5881 10.3903L30.75 9.97125Z" fill="#4477B8"/>
<path fill-rule="evenodd" clip-rule="evenodd" d="M28.875 12.5625V17.745C28.8749 18.4415 29.0688 19.1242 29.4349 19.7166C29.801 20.3091 30.3249 20.7879 30.9478 21.0994L34.5 22.875V17.6925C34.5001 16.996 34.3062 16.3133 33.9401 15.7209C33.574 15.1284 33.0501 14.6496 32.4272 14.3381L28.875 12.5625ZM30.75 15.5963V17.745C30.75 18.0933 30.847 18.4347 31.0302 18.7309C31.2133 19.0271 31.4753 19.2665 31.7869 19.4222L32.625 19.8412V17.6925C32.625 17.3442 32.528 17.0028 32.3448 16.7066C32.1617 16.4104 31.8997 16.171 31.5881 16.0153L30.75 15.5963ZM38.25 1.3125V6.495C38.2501 7.19145 38.0562 7.87416 37.6901 8.46662C37.324 9.05908 36.8001 9.53789 36.1772 9.84938L32.625 11.625V6.4425C32.6249 5.74605 32.8188 5.06334 33.1849 4.47088C33.551 3.87842 34.0749 3.39961 34.6978 3.08812L38.25 1.3125ZM36.375 4.34625V6.495C36.375 6.84328 36.278 7.18466 36.0948 7.4809C35.9117 7.77713 35.6497 8.01651 35.3381 8.17219L34.5 8.59125V6.4425C34.5 6.09422 34.597 5.75284 34.7802 5.4566C34.9633 5.16037 35.2253 4.92099 35.5369 4.76531L36.375 4.34625Z" fill="#4477B8"/>
<path fill-rule="evenodd" clip-rule="evenodd" d="M38.25 6.9375V12.12C38.2501 12.8165 38.0562 13.4992 37.6901 14.0916C37.324 14.6841 36.8001 15.1629 36.1772 15.4744L32.625 17.25V12.0675C32.6249 11.371 32.8188 10.6883 33.1849 10.0959C33.551 9.50342 34.0749 9.02461 34.6978 8.71312L38.25 6.9375ZM36.375 9.97125V12.12C36.375 12.4683 36.278 12.8097 36.0948 13.1059C35.9117 13.4021 35.6497 13.6415 35.3381 13.7972L34.5 14.2162V12.0675C34.5 11.7192 34.597 11.3778 34.7802 11.0816C34.9633 10.7854 35.2253 10.546 35.5369 10.3903L36.375 9.97125Z" fill="#4477B8"/>
<path fill-rule="evenodd" clip-rule="evenodd" d="M38.25 12.5625V17.745C38.2501 18.4415 38.0562 19.1242 37.6901 19.7166C37.324 20.3091 36.8001 20.7879 36.1772 21.0994L32.625 22.875V17.6925C32.6249 16.996 32.8188 16.3133 33.1849 15.7209C33.551 15.1284 34.0749 14.6496 34.6978 14.3381L38.25 12.5625ZM36.375 15.5963V17.745C36.375 18.0933 36.278 18.4347 36.0948 18.7309C35.9117 19.0271 35.6497 19.2665 35.3381 19.4222L34.5 19.8412V17.6925C34.5 17.3442 34.597 17.0028 34.7802 16.7066C34.9633 16.4104 35.2253 16.171 35.5369 16.0153L36.375 15.5963ZM19.7559 10.1072C18.9938 9.9079 18.2124 9.79129 17.4253 9.75938C16.4916 9.84656 15.6422 10.5441 14.9634 11.6916C14.2462 12.9056 13.875 14.3831 13.875 15.375C13.875 15.6236 13.7762 15.8621 13.6004 16.0379C13.4246 16.2137 13.1861 16.3125 12.9375 16.3125C12.6889 16.3125 12.4504 16.2137 12.2746 16.0379C12.0988 15.8621 12 15.6236 12 15.375C12 14.025 12.4725 12.2203 13.35 10.7381C13.5497 10.3997 13.7784 10.065 14.0381 9.75H12C10.9875 9.75 10.065 10.4625 9.3375 11.6925C8.62219 12.9047 8.25 14.3812 8.25 15.375C8.25 15.6236 8.15123 15.8621 7.97541 16.0379C7.7996 16.2137 7.56114 16.3125 7.3125 16.3125C7.06386 16.3125 6.8254 16.2137 6.64959 16.0379C6.47377 15.8621 6.375 15.6236 6.375 15.375C6.375 14.025 6.8475 12.2203 7.725 10.7381C7.78625 10.6331 7.85031 10.5294 7.91719 10.4269C3.73313 11.9719 0.75 15.9975 0.75 20.7188C0.75 22.2852 1.37226 23.7875 2.4799 24.8951C3.58754 26.0027 5.08982 26.625 6.65625 26.625H22.0312C23.5977 26.625 25.1 26.0027 26.2076 24.8951C27.3152 23.7875 27.9375 22.2852 27.9375 20.7188C27.9375 16.3538 25.3875 12.585 21.6966 10.8187C21.1059 11.3006 20.5903 12.0431 20.1994 12.9159C19.7306 13.9594 19.5 15.0619 19.5 15.8438C19.5 16.0924 19.4012 16.3308 19.2254 16.5067C19.0496 16.6825 18.8111 16.7812 18.5625 16.7812C18.3139 16.7812 18.0754 16.6825 17.8996 16.5067C17.7238 16.3308 17.625 16.0924 17.625 15.8438C17.625 14.7562 17.9297 13.3941 18.4875 12.1491C18.8062 11.4384 19.2263 10.7231 19.7559 10.1072Z" fill="#4477B8"/>
<path fill-rule="evenodd" clip-rule="evenodd" d="M21.0328 11.5069C20.6875 11.9551 20.4 12.4449 20.1769 12.9648C19.725 13.9941 19.5 15.0741 19.5 15.8438C19.5 16.0925 19.4012 16.3309 19.2254 16.5067C19.0496 16.6825 18.8111 16.7813 18.5625 16.7813C18.3139 16.7813 18.0754 16.6825 17.8996 16.5067C17.7238 16.3309 17.625 16.0925 17.625 15.8438C17.625 14.7563 17.9297 13.3941 18.4875 12.1491C18.5425 12.0273 18.6006 11.9048 18.6619 11.7816C18.9589 11.1821 19.3262 10.62 19.7559 10.1073C18.9938 9.90796 18.2124 9.79135 17.4253 9.75944C16.7541 9.82226 16.1269 10.2001 15.5756 10.8329L15.4838 10.9416C15.2931 11.1764 15.1204 11.4252 14.9672 11.686L14.9634 11.6916C14.2463 12.9057 13.875 14.3832 13.875 15.3751C13.875 15.6237 13.7762 15.8622 13.6004 16.038C13.4246 16.2138 13.1861 16.3126 12.9375 16.3126C12.6889 16.3126 12.4504 16.2138 12.2746 16.038C12.0988 15.8622 12 15.6237 12 15.3751C12 14.2848 12.3084 12.8982 12.8878 11.6251C13.029 11.3142 13.187 11.0112 13.3613 10.7176C13.5611 10.3778 13.7874 10.0543 14.0381 9.75007H12C11.9154 9.74935 11.8308 9.75436 11.7469 9.76507C10.92 9.86351 10.1606 10.441 9.53063 11.3851C9.4641 11.486 9.40002 11.5885 9.33844 11.6926C8.62125 12.9048 8.25 14.3813 8.25 15.3751C8.25 15.6237 8.15123 15.8622 7.97542 16.038C7.7996 16.2138 7.56115 16.3126 7.3125 16.3126C7.06386 16.3126 6.82541 16.2138 6.64959 16.038C6.47378 15.8622 6.375 15.6237 6.375 15.3751C6.375 14.7048 6.49126 13.9219 6.71626 13.1232C6.94874 12.2883 7.28745 11.4868 7.72407 10.7382L7.74469 10.7035C7.79469 10.6191 7.84626 10.536 7.89938 10.4541L7.91813 10.426C7.77188 10.4798 7.62782 10.5366 7.48594 10.5966C6.63563 10.9529 5.84063 11.4123 5.11501 11.9598C3.75794 12.9812 2.65711 14.3043 1.89953 15.8245C1.14195 17.3447 0.748403 19.0203 0.750005 20.7188C0.750005 22.2853 1.37227 23.7875 2.47991 24.8952C3.58754 26.0028 5.08982 26.6251 6.65626 26.6251H22.0313C23.5977 26.6251 25.1 26.0028 26.2076 24.8952C27.3152 23.7875 27.9375 22.2853 27.9375 20.7188C27.9375 16.3538 25.3875 12.5851 21.6966 10.8188C21.4502 11.0228 21.2282 11.2536 21.0328 11.5069ZM22.1334 13.2329C22.0518 13.3794 21.9767 13.5296 21.9084 13.6829C21.5325 14.5248 21.3741 15.3657 21.3741 15.8438C21.3741 16.5897 21.0778 17.3051 20.5503 17.8326C20.0229 18.36 19.3075 18.6563 18.5616 18.6563C17.8156 18.6563 17.1003 18.36 16.5728 17.8326C16.0454 17.3051 15.7491 16.5897 15.7491 15.8438C15.7491 15.4388 15.7809 15.0141 15.8428 14.5791C15.78 14.8848 15.7491 15.1604 15.7491 15.3751C15.7491 16.121 15.4528 16.8364 14.9253 17.3638C14.3979 17.8913 13.6825 18.1876 12.9366 18.1876C12.1906 18.1876 11.4753 17.8913 10.9478 17.3638C10.4204 16.8364 10.1241 16.121 10.1241 15.3751C10.1241 16.121 9.82775 16.8364 9.3003 17.3638C8.77286 17.8913 8.05749 18.1876 7.31157 18.1876C6.56565 18.1876 5.85028 17.8913 5.32283 17.3638C4.79538 16.8364 4.49907 16.121 4.49907 15.3751L4.50094 15.1848C3.28133 16.7715 2.62167 18.7175 2.625 20.7188C2.625 21.2482 2.72928 21.7724 2.93187 22.2615C3.13445 22.7506 3.43139 23.195 3.80573 23.5693C4.18007 23.9437 4.62447 24.2406 5.11356 24.4432C5.60266 24.6458 6.12686 24.7501 6.65626 24.7501H22.0313C22.5606 24.7501 23.0849 24.6458 23.5739 24.4432C24.063 24.2406 24.5074 23.9437 24.8818 23.5693C25.2561 23.195 25.5531 22.7506 25.7556 22.2615C25.9582 21.7724 26.0625 21.2482 26.0625 20.7188C26.0636 19.2461 25.7066 17.7952 25.0223 16.4911C24.338 15.187 23.346 14.0688 22.1334 13.2329Z" fill="#4477B8"/>
</svg>
