<svg width="45" height="45" viewBox="0 0 45 45" fill="none" xmlns="http://www.w3.org/2000/svg">
<path d="M27.2067 15.7917C26.7766 15.5809 26.3039 15.4714 25.8249 15.4717C25.3459 15.4719 24.8733 15.5819 24.4434 15.7932L13.1344 21.2072L13.1245 21.2142C12.8015 21.3774 12.5173 21.608 12.291 21.8904C12.0646 22.1727 11.9015 22.5003 11.8125 22.8511C11.0914 22.6673 10.3284 22.7471 9.66094 23.0761L8.28281 23.7371L8.27156 23.7441C7.44891 24.1547 6.88922 24.9957 6.88922 25.9716V28.216L2.66063 30.2761L2.64656 30.2832C2.27809 30.4628 1.9669 30.7414 1.74784 31.0879C1.52877 31.4344 1.4105 31.835 1.40625 32.2449V33.9605C1.40625 34.7508 1.82813 35.5538 2.64797 35.963L16.9256 42.983C17.5518 43.2942 18.2415 43.4561 18.9408 43.4561C19.64 43.4561 20.3298 43.2942 20.9559 42.983L42.3253 32.581L42.3394 32.5739C43.1578 32.1661 43.5797 31.3603 43.5797 30.5714V28.8558C43.5751 28.446 43.4564 28.0456 43.2371 27.6994C43.0178 27.3531 42.7065 27.0748 42.338 26.8955L38.5594 25.0364V22.9214C38.5577 22.4584 38.4275 22.0049 38.1835 21.6114C37.9395 21.2179 37.5911 20.8998 37.177 20.6925L27.2123 15.796L27.2067 15.7917ZM23.7797 30.2058C23.7797 29.8964 23.722 29.5955 23.6138 29.3171L24.0469 29.5308C24.3141 29.6574 24.4828 29.9386 24.4828 30.2339V34.073C24.4828 34.4105 24.1313 34.6355 23.8219 34.4808L23.7797 34.4597V30.2058ZM6.89063 31.2324C6.89063 32.1169 7.39969 32.8932 8.13656 33.2799L8.15203 33.2883L18.533 38.3874L18.5484 38.3944C18.8832 38.5527 19.2486 38.6356 19.6189 38.6373C19.9892 38.639 20.3554 38.5595 20.6916 38.4042L20.7056 38.3972L22.4944 37.5324L22.5098 37.5239C23.1441 37.2075 23.5702 36.6366 23.7192 35.9883C24.3239 36.1796 24.975 36.1317 25.5431 35.873L25.5572 35.8674L37.2797 30.2452L37.2895 30.2396C38.0911 29.8402 38.5594 29.0344 38.5594 28.1808V26.6044L41.7094 28.1513C42.3281 28.4607 42.3281 29.3325 41.7094 29.6419L20.3344 40.0482C19.4625 40.4841 18.4219 40.4841 17.55 40.0482L3.27656 33.0324C3.13704 32.9641 3.01948 32.8581 2.93724 32.7263C2.85501 32.5946 2.81142 32.4424 2.81142 32.2871C2.81142 32.1317 2.85501 31.9795 2.93724 31.8478C3.01948 31.716 3.13704 31.61 3.27656 31.5417L6.89063 29.7825V31.2324ZM25.0453 17.0574C25.5375 16.8183 26.1 16.8183 26.6063 17.0574L36.4641 21.9089C36.7453 22.0496 36.7453 22.4574 36.4641 22.598L25.0312 28.0824C24.6797 28.2511 24.2859 28.2511 23.9484 28.0824L13.8516 23.1183C13.5703 22.9777 13.5703 22.5699 13.8516 22.4292L25.0453 17.0574ZM8.29688 27.323C8.29688 27.0417 8.59219 26.8449 8.85938 26.9714L19.2094 32.0621C19.3183 32.1151 19.4132 32.1931 19.4865 32.2895C19.5598 32.386 19.6094 32.4984 19.6313 32.6175V36.5902C19.6309 36.6199 19.6338 36.6496 19.6397 36.6788C19.6285 36.7496 19.6006 36.8168 19.5584 36.8748C19.5162 36.9328 19.4609 36.98 19.397 37.0125C19.3331 37.045 19.2624 37.0619 19.1906 37.0618C19.1189 37.0617 19.0482 37.0447 18.9844 37.0121L8.80313 32.0058C8.65259 31.9363 8.52501 31.8253 8.43534 31.6858C8.34567 31.5463 8.29764 31.3841 8.29688 31.2183V27.323ZM9 24.9464L10.2656 24.3417C10.7578 24.1027 11.3203 24.1027 11.8125 24.3417L21.6703 29.1792C21.9516 29.3199 21.9516 29.7277 21.6703 29.8683L20.1797 30.5996C19.8281 30.7683 19.4344 30.7683 19.0969 30.5996L9 25.6355C8.71875 25.4949 8.71875 25.0871 9 24.9464Z" fill="#4477B8"/>
</svg>
