<svg width="45" height="45" viewBox="0 0 45 45" fill="none" xmlns="http://www.w3.org/2000/svg">
<path d="M15.3703 3.22071C15.9159 3.84601 16.3083 4.58977 16.5165 5.39307C16.7247 6.19636 16.743 7.0371 16.5699 7.84868C17.8279 7.21414 19.1952 6.82472 20.5988 6.70118C22.7691 6.51164 24.9469 6.9702 26.8566 8.01884C31.8245 10.7456 35.9141 14.8294 38.648 19.7934C39.3729 21.103 39.8222 22.5471 39.968 24.0369C40.1138 25.5267 39.9532 27.0305 39.496 28.4559C40.3327 28.6475 41.1091 29.0431 41.7558 29.6076L41.7614 29.6118C44.0958 31.6621 44.2083 35.234 42.0371 37.3884C41.1973 38.2278 40.1018 38.7637 38.9236 38.9113C38.783 40.0546 38.2767 41.1487 37.3993 42.0276C36.8825 42.5453 36.2647 42.9511 35.5843 43.2198C34.9039 43.4884 34.1755 43.6141 33.4444 43.589C32.7133 43.564 31.9953 43.3887 31.3349 43.0741C30.6745 42.7595 30.0859 42.3123 29.6058 41.7604V41.7576C29.0396 41.1086 28.6434 40.3292 28.4527 39.4893C27.0281 39.9441 25.5259 40.1043 24.0374 39.9603C22.5489 39.8162 21.1053 39.3708 19.7944 38.6512C14.835 35.9183 10.7519 31.8357 8.01847 26.8766C6.91246 24.8777 6.45819 22.5833 6.71909 20.3137C6.86771 19.0094 7.24923 17.7425 7.8455 16.5731C7.03403 16.7458 6.19349 16.7272 5.39046 16.5187C4.58743 16.3103 3.84396 15.9177 3.21894 15.3721L3.21331 15.3679C2.66671 14.8868 2.22448 14.2989 1.91391 13.6403C1.60334 12.9817 1.43101 12.2665 1.40755 11.5387C1.3841 10.8109 1.51001 10.0861 1.77754 9.40887C2.04506 8.73165 2.44851 8.11644 2.963 7.60118C3.79665 6.75539 4.89201 6.21663 6.07081 6.07259C6.21144 4.93915 6.71488 3.83524 7.59378 2.95633L7.598 2.95212C8.11511 2.44027 8.73131 2.03941 9.40882 1.77412C10.0863 1.50883 10.8109 1.38469 11.538 1.40931C12.2652 1.43393 12.9797 1.60679 13.6377 1.91731C14.2957 2.22782 14.8834 2.66943 15.3647 3.21509L15.3703 3.22071ZM28.6594 36.3871C28.7953 36.0215 28.9702 35.6709 29.1839 35.3352C28.2918 35.9993 27.208 36.3556 26.0958 36.3506C24.7036 36.3506 23.4099 35.8162 22.4255 34.8318C21.4411 33.8474 20.9068 32.5537 20.9068 31.1615C20.9068 29.7693 21.4411 28.4756 22.4255 27.4912L27.488 22.4287C28.4724 21.4443 29.7661 20.9099 31.1583 20.9099C32.5364 20.9099 33.8442 21.4584 34.8286 22.4287C35.813 23.4131 36.3474 24.7068 36.3474 26.099C36.3474 27.231 35.9958 28.297 35.3349 29.1857C35.6696 28.9706 36.0268 28.7948 36.3952 28.6584C36.9617 27.4814 37.2383 26.186 37.2018 24.8803C37.1654 23.5747 36.8169 22.2967 36.1857 21.1532C33.7095 16.6553 30.0046 12.9548 25.5038 10.484C24.0815 9.70335 22.4597 9.36224 20.8435 9.50383C18.9232 9.669 17.1222 10.5043 15.7557 11.8635L11.8603 15.7729C10.6045 17.0279 9.79081 18.6571 9.54197 20.415C9.29313 22.1729 9.62264 23.964 10.4808 25.5182C12.9569 30.0114 16.6558 33.7107 21.1486 36.1874C22.2949 36.815 23.5742 37.1604 24.8806 37.1952C26.187 37.2299 27.4828 36.9529 28.6608 36.3871M8.84253 6.69837V6.72649C8.80456 7.85712 7.89331 8.83587 6.69097 8.8443C6.04237 8.85132 5.42277 9.11412 4.96691 9.57555L4.95847 9.5854C3.93894 10.6035 3.97409 12.2798 5.07519 13.2585C5.53426 13.6537 6.11921 13.8722 6.72494 13.8748C7.33067 13.8774 7.91746 13.6638 8.37988 13.2726C8.69269 12.9938 9.08098 12.8138 9.49587 12.7553C9.91076 12.6967 10.3337 12.7622 10.7114 12.9435L12.9375 10.7076C12.7573 10.3302 12.6926 9.90805 12.7513 9.49401C12.8101 9.07998 12.9899 8.69252 13.268 8.38024C13.6593 7.91783 13.8728 7.33103 13.8702 6.72531C13.8676 6.11958 13.6491 5.53462 13.2539 5.07555C13.0263 4.81745 12.7485 4.60847 12.4374 4.46138C12.1263 4.31429 11.7884 4.23219 11.4445 4.22008C11.1006 4.20797 10.7578 4.26611 10.4371 4.39096C10.1165 4.5158 9.82461 4.70472 9.57941 4.94618C9.09144 5.43555 8.84816 6.06415 8.83972 6.69837M29.1572 27.2057L27.2025 29.1604C27.1955 29.1673 27.1899 29.1757 27.1863 29.1849C27.1826 29.1941 27.181 29.2039 27.1814 29.2138C27.1814 29.2382 27.1885 29.256 27.2025 29.2673L31.6885 33.7532C32.056 34.1195 32.2701 34.6122 32.2871 35.1308C32.3041 35.6494 32.1227 36.1551 31.7799 36.5446C30.9235 37.5346 30.9178 38.9816 31.7264 39.914C31.9533 40.1747 32.2313 40.3859 32.5433 40.5345C32.8554 40.6831 33.1946 40.7658 33.54 40.7775C33.8854 40.7893 34.2295 40.7298 34.5508 40.6027C34.8722 40.4757 35.164 40.2839 35.408 40.0391C35.8759 39.5776 36.1423 38.9498 36.1491 38.2926C36.1561 37.0888 37.1363 36.1776 38.2683 36.141L38.2824 36.1396H38.2964C38.9292 36.1298 39.5607 35.8865 40.0486 35.3985L40.0528 35.3943C41.0555 34.4001 41.0288 32.7168 39.908 31.7282C38.9757 30.921 37.5314 30.9281 36.5414 31.7845C36.1517 32.1271 35.646 32.3082 35.1273 32.291C34.6087 32.2738 34.1161 32.0594 33.75 31.6916L29.2641 27.2057C29.2572 27.1986 29.2488 27.1931 29.2396 27.1895C29.2304 27.1858 29.2205 27.1842 29.2107 27.1846C29.201 27.1844 29.1914 27.1861 29.1824 27.1897C29.1735 27.1934 29.1654 27.1988 29.1586 27.2057" fill="#4477B8"/>
</svg>
