<svg width="45" height="45" viewBox="0 0 45 45" fill="none" xmlns="http://www.w3.org/2000/svg">
<path d="M31.65 7.50008L35.6812 11.4376L25.3125 19.6876L23.4375 17.8126L31.6313 7.50008H31.65ZM31.65 3.75008C31.0959 3.74642 30.5479 3.86559 30.0454 4.09902C29.5429 4.33244 29.0984 4.67433 28.7437 5.10008L18.375 18.0938L25.0125 24.7313L38.025 14.3813C39.7125 12.9563 39.8437 10.3876 38.2687 8.81258L34.3125 4.85633C33.5625 4.10633 32.6062 3.75008 31.65 3.75008ZM17.0625 19.4251L15.7312 20.7563C15.3797 21.114 15.1827 21.5954 15.1827 22.097C15.1827 22.5985 15.3797 23.0799 15.7312 23.4376L19.6875 27.3751C20.0812 27.7501 20.55 27.9188 21.0375 27.9188C21.525 27.9188 21.9937 27.7501 22.3687 27.3751L23.6812 26.0626L17.0625 19.4251ZM11.25 28.1251C10.2187 28.1251 9.375 28.9688 9.375 30.0001C9.375 31.0313 10.2187 31.8751 11.25 31.8751C12.2812 31.8751 13.125 31.0313 13.125 30.0001C13.125 28.9688 12.2812 28.1251 11.25 28.1251ZM16.875 30.0001C15.8437 30.0001 15 30.8438 15 31.8751C15 32.9063 15.8437 33.7501 16.875 33.7501C17.9062 33.7501 18.75 32.9063 18.75 31.8751C18.75 30.8438 17.9062 30.0001 16.875 30.0001ZM7.5 33.7501C6.46875 33.7501 5.625 34.5938 5.625 35.6251C5.625 36.6563 6.46875 37.5001 7.5 37.5001C8.53125 37.5001 9.375 36.6563 9.375 35.6251C9.375 34.5938 8.53125 33.7501 7.5 33.7501ZM13.125 35.6251C12.0937 35.6251 11.25 36.4688 11.25 37.5001C11.25 38.5313 12.0937 39.3751 13.125 39.3751C14.1562 39.3751 15 38.5313 15 37.5001C15 36.4688 14.1562 35.6251 13.125 35.6251Z" fill="#4477B8"/>
</svg>
