<svg width="37" height="43" viewBox="0 0 37 43" fill="none" xmlns="http://www.w3.org/2000/svg">
<path d="M7.4732 30.4918C6.34556 30.657 4.48931 30.9646 3.25445 29.5636C2.01959 28.1627 0.951714 24.7798 0.482378 21.7563C-0.2102 17.3003 0.477105 13.5447 2.41597 11.1822C3.55855 9.7909 5.05796 8.98494 6.7525 8.85662C8.20357 8.745 10.3718 9.31277 12.4654 12.6526C13.7767 14.7453 14.7743 17.5253 15.2023 20.2789C15.7191 23.6029 16.2227 27.1502 14.4605 28.4219C13.4665 29.14 12.7528 29.3887 11.0662 29.7904C9.67925 30.12 8.60171 30.3257 7.4732 30.4918ZM5.46753 33.3509L15.0379 31.3768C15.8465 31.2098 16.4952 31.6546 16.7958 32.987C17.7819 37.3604 16.3686 42.5934 11.9424 42.5934C7.75093 42.5934 4.95777 37.8157 4.50162 35.2475C4.29332 34.083 4.59039 33.531 5.46753 33.3509ZM25.9346 21.3538C24.248 20.9539 23.5343 20.7034 22.5403 19.9853C20.7781 18.7136 21.2817 15.1663 21.7985 11.8423C22.2265 9.08865 23.2241 6.30515 24.5354 4.21599C26.6272 0.87615 28.7955 0.308376 30.2483 0.419997C31.9411 0.549197 33.4414 1.3534 34.5839 2.7447C36.5246 5.1072 37.2119 8.86277 36.5175 13.3188C36.0473 16.3423 34.983 19.7137 33.7411 21.1262C32.4992 22.5386 30.6535 22.2195 29.5223 22.0543C28.3912 21.889 27.3207 21.6825 25.9346 21.3538ZM31.5324 24.9134L21.962 22.9393C21.1534 22.7723 20.5047 23.2171 20.2042 24.5495C19.2189 28.9229 20.6322 34.1559 25.0584 34.1559C29.2499 34.1559 32.043 29.3782 32.4992 26.81C32.7066 25.6455 32.4095 25.0935 31.5324 24.9134Z" fill="#4477B8"/>
</svg>
