<svg width="33" height="39" viewBox="0 0 33 39" fill="none" xmlns="http://www.w3.org/2000/svg">
<path d="M4.6875 12.7031C6.28125 11.8594 7.93 11.2188 9.63375 10.7812C11.3375 10.3438 13.0794 10.125 14.8594 10.125C15.7969 10.125 16.7269 10.1875 17.6494 10.3125C18.5719 10.4375 19.4856 10.625 20.3906 10.875C21.9531 11.3125 23.1487 11.6094 23.9775 11.7656C24.8062 11.9219 25.6887 12 26.625 12H28.3594L29.1562 4.5H3.84375L4.6875 12.7031ZM7.07812 38.25C6.10937 38.25 5.27375 37.9375 4.57125 37.3125C3.86875 36.6875 3.47 35.8906 3.375 34.9219L0.140625 5.39062C-0.015625 4.14062 0.328125 3.055 1.17187 2.13375C2.01562 1.2125 3.0625 0.75125 4.3125 0.75H28.6875C29.9375 0.75 30.9844 1.21125 31.8281 2.13375C32.6719 3.05625 33.0156 4.14187 32.8594 5.39062L29.625 34.9219C29.5312 35.8906 29.1325 36.6875 28.4287 37.3125C27.725 37.9375 26.8894 38.25 25.9219 38.25H7.07812Z" fill="#4477B8"/>
</svg>
