<svg width="20" height="19" viewBox="0 0 20 19" fill="none" xmlns="http://www.w3.org/2000/svg">
<path d="M6.984 17.6628H3.694C2.482 17.6628 1.5 16.6808 1.5 15.4688V9.01477C1.50074 8.5446 1.60194 8.08001 1.79682 7.65213C1.99171 7.22425 2.27578 6.84295 2.63 6.53377L8.56 1.36877C8.95931 1.0214 9.47074 0.830078 10 0.830078C10.5293 0.830078 11.0407 1.0214 11.44 1.36877L17.37 6.53477C17.7241 6.84384 18.0081 7.22497 18.203 7.65267C18.3978 8.08037 18.4991 8.54477 18.5 9.01477V15.4688C18.5 16.0505 18.269 16.6084 17.8577 17.0198C17.4465 17.4312 16.8887 17.6625 16.307 17.6628H13.29V11.0818C13.29 10.1738 12.554 9.43677 11.645 9.43677H8.63C7.721 9.43677 6.985 10.1738 6.985 11.0818L6.984 17.6628ZM6.984 17.6628H13.291" stroke="#4477B8" stroke-width="1.5" stroke-linejoin="round"/>
</svg>
