<svg width="22" height="22" viewBox="0 0 22 22" fill="none" xmlns="http://www.w3.org/2000/svg">
<path d="M6 17V15M11 17V14M16 17V12M1.5 11C1.5 6.522 1.5 4.282 2.891 2.891C4.282 1.5 6.521 1.5 11 1.5C15.478 1.5 17.718 1.5 19.109 2.891C20.5 4.282 20.5 6.521 20.5 11C20.5 15.478 20.5 17.718 19.109 19.109C17.718 20.5 15.479 20.5 11 20.5C6.522 20.5 4.282 20.5 2.891 19.109C1.5 17.718 1.5 15.479 1.5 11Z" stroke="#717171" stroke-width="1.5" stroke-linecap="round" stroke-linejoin="round"/>
<path d="M4.99194 10.4865C7.14694 10.5585 12.0339 10.2335 14.8139 5.82146M12.9919 5.28846L14.8679 4.98646C15.0959 4.95746 15.4319 5.13846 15.5149 5.35346L16.0099 6.99146" stroke="#717171" stroke-width="1.5" stroke-linecap="round" stroke-linejoin="round"/>
</svg>
