<svg width="20" height="20" viewBox="0 0 20 20" fill="none" xmlns="http://www.w3.org/2000/svg">
<path d="M13.2535 16.0818H6.7485M6.7485 14.0693H13.2515M18.2785 16.3938H18.696C19.0025 16.3938 19.25 16.1483 19.25 15.8418V14.2658C19.25 13.9608 19.003 13.7138 18.698 13.7138H18.2805M16.334 18.0038H17.727C17.7995 18.004 17.8713 17.9899 17.9383 17.9623C18.0053 17.9346 18.0662 17.894 18.1174 17.8427C18.1687 17.7915 18.2093 17.7306 18.2369 17.6636C18.2646 17.5966 18.2787 17.5248 18.2785 17.4523V12.6573C18.2789 12.511 18.2212 12.3705 18.1181 12.2667C18.0149 12.163 17.8748 12.1044 17.7285 12.1038H16.336M1.7195 16.3958H1.304C1.23151 16.3961 1.15968 16.3821 1.09261 16.3546C1.02553 16.3271 0.964534 16.2866 0.91309 16.2356C0.861646 16.1845 0.820766 16.1238 0.792783 16.0569C0.7648 15.9901 0.750262 15.9183 0.75 15.8458V14.2658C0.75 13.9598 0.9955 13.7138 1.304 13.7138H1.7195M3.666 18.0038H2.271C2.12473 18.0038 1.98446 17.9457 1.88103 17.8423C1.7776 17.7389 1.7195 17.5986 1.7195 17.4523V12.6573C1.7195 12.3513 1.965 12.1038 2.2715 12.1038H3.6625M8.5665 12.3363H13.2515M6.7465 11.7973L7.512 11.0283M8.567 8.55834H15.192M4.8795 8.47884L5.5845 9.18584L7.512 7.24884M8.567 4.77884H15.192M4.8795 4.69884L5.5845 5.40584L7.512 3.47084M13.252 17.7208H6.748M2.687 12.1033V1.92484C2.687 1.31234 3.177 0.819336 3.7835 0.819336H16.2185C16.827 0.819336 17.3165 1.31084 17.3165 1.92484V12.1038M15.784 10.9263H13.805C13.5 10.9263 13.253 11.1733 13.253 11.4783V18.6293C13.2527 18.7019 13.2668 18.7738 13.2945 18.8409C13.3221 18.908 13.3628 18.9689 13.4141 19.0202C13.4654 19.0716 13.5264 19.1122 13.5934 19.1399C13.6605 19.1675 13.7324 19.1816 13.805 19.1813H15.7835C15.8561 19.1816 15.928 19.1675 15.9951 19.1399C16.0621 19.1122 16.1231 19.0716 16.1744 19.0202C16.2257 18.9689 16.2664 18.908 16.294 18.8409C16.3217 18.7738 16.3358 18.7019 16.3355 18.6293V11.4803C16.3358 11.4078 16.3217 11.336 16.2942 11.2689C16.2668 11.2019 16.2263 11.1409 16.1752 11.0894C16.1242 11.038 16.0635 10.9971 15.9966 10.9691C15.9297 10.9411 15.858 10.9266 15.7855 10.9263H15.784ZM4.216 10.9263H6.193C6.501 10.9263 6.7465 11.1718 6.7465 11.4803V18.6293C6.74677 18.702 6.73262 18.774 6.70488 18.8412C6.67714 18.9084 6.63635 18.9695 6.58488 19.0208C6.53341 19.0721 6.47228 19.1127 6.40501 19.1403C6.33775 19.1678 6.26569 19.1818 6.193 19.1813H4.218C3.913 19.1813 3.666 18.9343 3.666 18.6293V11.4803C3.666 11.1738 3.912 10.9263 4.218 10.9263H4.216Z" stroke="#717171" stroke-width="1.5" stroke-linecap="round" stroke-linejoin="round"/>
</svg>
