<svg width="25" height="24" viewBox="0 0 25 24" fill="none" xmlns="http://www.w3.org/2000/svg">
<path d="M12.25 14.5C14.3991 14.5 16.3192 14.9361 17.6836 15.6182C19.0778 16.3152 19.75 17.1863 19.75 18V19.5H4.75V18C4.75 17.1863 5.42224 16.3152 6.81641 15.6182C8.18078 14.9361 10.1009 14.5 12.25 14.5ZM12.25 4.5C13.1783 4.5 14.0682 4.86901 14.7246 5.52539C15.381 6.18177 15.75 7.07174 15.75 8C15.75 8.92826 15.381 9.81823 14.7246 10.4746C14.0682 11.131 13.1783 11.5 12.25 11.5C11.3217 11.5 10.4318 11.131 9.77539 10.4746C9.11901 9.81823 8.75 8.92826 8.75 8C8.75 7.07174 9.11901 6.18177 9.77539 5.52539C10.4318 4.86901 11.3217 4.5 12.25 4.5Z" stroke="#876370"/>
</svg>
